<svg width="20" height="20" viewBox="0 0 20 20" fill="none" xmlns="http://www.w3.org/2000/svg">
<path d="M1 14.6215C0.447715 14.6215 0 14.1859 0 13.6486C0 13.1112 0.447715 12.6756 1 12.6756H11.5C12.5 12.6756 13.5 14.6215 13 14.6215H1ZM15 14.6215C14.4477 14.6215 14 14.1859 14 13.6486C14 13.1112 14.4477 12.6756 15 12.6756H19C19.5523 12.6756 20 13.1112 20 13.6486C20 14.1859 19.5523 14.6215 19 14.6215H15ZM10.6334 1.48765C10.9089 1.02197 11.5203 0.861816 11.999 1.12993C12.4776 1.39805 12.6422 1.99291 12.3666 2.45859L5.45953 14.1307C5.18396 14.5963 4.57257 14.7565 4.09395 14.4884C3.61532 14.2203 3.45072 13.6254 3.72629 13.1597L10.6334 1.48765ZM2 16.081C2.5 15.108 5.5 14.1351 4.5 15.8094C4.32221 16.107 3.77775 17.008 2.86662 18.5124C2.59105 18.978 1.97966 19.1382 1.50104 18.8701C1.02241 18.6019 0.857807 18.0071 1.13338 17.5414L2 16.081ZM7.13338 2.45859C6.85781 1.99291 7.02241 1.39805 7.50104 1.12993C7.97966 0.861816 8.59105 1.02197 8.86662 1.48765L10.6105 4.4345C10.886 4.90018 10.7214 5.49504 10.2428 5.76316C9.76418 6.03128 9.15278 5.87112 8.87721 5.40545L7.13338 2.45859ZM11 9.27028C10.1019 7.81085 11 4.89198 11.7163 6.34743L18.3666 17.5414C18.6422 18.0071 18.4776 18.6019 17.999 18.8701C17.5203 19.1382 16.9089 18.978 16.6334 18.5124L11 9.27028Z" fill="#0E5BFF"/>
</svg>
