<svg width="20" height="21" viewBox="0 0 20 21" fill="none" xmlns="http://www.w3.org/2000/svg">
<path d="M10.2679 9.24107L13.1429 6.16071L1.98512 0.136905C1.91666 0.0684524 1.77976 0.0684524 1.5744 0L10.2679 9.24107Z" fill="#0E5BFF"/>
<path d="M14.375 13.6905L18.4137 11.5C18.8928 11.2262 19.1666 10.8155 19.1666 10.2678C19.1666 9.72021 18.8928 9.24105 18.4137 9.03569L14.375 6.84521L11.1577 10.2678L14.375 13.6905Z" fill="#0E5BFF"/>
<path d="M0.273809 0.615967C0.0684524 0.821324 0 1.09513 0 1.36894V19.1666C0 19.4404 0.0684524 19.7142 0.273809 19.988L9.30952 10.2677L0.273809 0.615967Z" fill="#0E5BFF"/>
<path d="M10.2679 11.2947L1.5744 20.5357C1.71131 20.5357 1.84821 20.4673 1.98512 20.3988L13.1429 14.375L10.2679 11.2947Z" fill="#0E5BFF"/>
</svg>
