<svg width="52" height="29" viewBox="0 0 52 29" fill="none" xmlns="http://www.w3.org/2000/svg">
<path d="M36.4427 28.9995H32.0709C31.7685 28.9995 31.521 28.9032 31.3285 28.7108C31.1361 28.5183 31.0398 28.2709 31.0398 27.9684V1.16047C31.0398 0.858021 31.1361 0.610563 31.3285 0.418097C31.521 0.225629 31.7685 0.129395 32.0709 0.129395H50.4653C50.7677 0.129395 51.0152 0.225629 51.2077 0.418097C51.4001 0.610563 51.4964 0.858021 51.4964 1.16047V4.66612C51.4964 4.96857 51.4001 5.21603 51.2077 5.4085C51.0152 5.60097 50.7677 5.6972 50.4653 5.6972H37.4737V12.6673V18.1938V27.9684C37.4737 28.2709 37.3775 28.5183 37.185 28.7108C36.9926 28.9032 36.7451 28.9995 36.4427 28.9995Z" fill="black"/>
<path d="M10.0191 5.15537V13.404H10.1428V18.5181V27.839C10.1428 28.1415 10.0466 28.3889 9.85412 28.5814C9.66166 28.7739 9.4142 28.8701 9.11175 28.8701H4.41005C4.1076 28.8701 3.86014 28.7739 3.66768 28.5814C3.47521 28.3889 3.37897 28.1415 3.37897 27.839V1.03108C3.37897 0.728626 3.47521 0.481168 3.66768 0.288702C3.86014 0.096234 4.1076 0 4.41005 0H10.1428V5.15537H10.0191Z" fill="black"/>
<path d="M0.00291719 23.0871C-0.00495431 23.1253 0.0034173 23.1669 0.0241222 23.202C0.0449473 23.2372 0.0764047 23.263 0.113642 23.2745C0.15088 23.286 0.191442 23.2824 0.228474 23.2651C0.265386 23.2477 0.29574 23.2181 0.310788 23.1821C0.672229 22.3086 1.04459 21.5198 1.47215 20.7004C4.32355 14.9602 9.58738 11.0301 15.1935 11.1928C19.2555 11.1488 23.3751 12.573 27.3447 14.3356C27.3605 14.3427 27.3764 14.3498 27.3922 14.3569C32.6214 16.69 38.4298 18.0518 44.3883 17.5303C45.4268 17.4244 46.3303 17.3171 47.594 16.9752C48.2419 16.7756 48.7905 16.3328 49.1168 15.7362C49.4432 15.1397 49.5209 14.4397 49.3325 13.7887C49.1441 13.1376 48.7045 12.5873 48.1101 12.2573C47.5156 11.9272 46.8152 11.8458 46.1609 12.0231C45.6798 12.1325 44.7353 12.2614 43.9687 12.3052C39.1769 12.5899 34.1938 11.403 29.6307 9.35756C29.6129 9.34962 29.5952 9.34168 29.5774 9.33373C25.119 7.3617 20.0659 6.04365 14.8346 6.69613C7.23505 7.41554 2.14928 14.2363 0.666424 20.379C0.40419 21.2923 0.20044 22.1545 0.00291719 23.0871Z" fill="url(#paint0_linear_366_297)" fill-opacity="0.78"/>
<path d="M9.82323 5.15537V0H15.3498C17.5769 0 19.5016 0.343692 21.1238 1.03108C22.7735 1.71846 24.0521 2.76328 24.9594 4.16554C25.8942 5.54031 26.3617 7.25876 26.3617 9.32091C26.3617 11.4106 25.8942 13.1428 24.9594 14.5175C24.0521 15.8648 22.7735 16.8684 21.1238 17.5283C19.5016 18.1882 17.5769 18.5181 15.3498 18.5181H9.82323V13.404H15.1436C16.5458 13.404 17.6319 13.0603 18.4018 12.3729C19.1991 11.6855 19.5978 10.6544 19.5978 9.27967C19.5978 8.06988 19.2404 7.08004 18.5255 6.31018C17.8381 5.54031 16.7108 5.15537 15.1436 5.15537H9.82323Z" fill="black"/>
<defs>
<linearGradient id="paint0_linear_366_297" x1="58.1548" y1="16.4324" x2="0.156875" y2="16.4003" gradientUnits="userSpaceOnUse">
<stop offset="0.110567" stop-color="#FF6200"/>
<stop offset="0.418267" stop-color="#9900FF"/>
<stop offset="0.735582" stop-color="#0064FF"/>
</linearGradient>
</defs>
</svg>
